Dactyl Roman.sfdir
StartChar: !
Encoding: 33 33 0
Width: 163
InSpiro: 1
        Flags: H
        LayerCount: 2
        Back
        SplineSet
30 630 m 0
0 630 l 0
0 634 l 0
64 634 l 0
64 630 l 0
34 630 l 0
34 214 l 0
64 214 l 0
64 210 l 0
0 210 l 0
0 214 l 0
30 214 l 0
30 630 l 0
Z
32 25 m 0
33 24 35 25 36 27 c 0
38 28 39 30 39 32 c 0
38 33 38 35 36 36 c 0
35 38 33 38 32 39 c 0
30 39 28 38 27 36 c 0
25 35 25 33 25 32 c 0
24 30 25 28 27 27 c 0
28 25 30 24 32 25 c 0
Z
Spiro
30 630 v
0 630 v
0 634 v
64 634 v
64 630 v
34 630 v
34 214 v
64 214 v
64 210 v
0 210 v
0 214 v
30 214 v
32 25 c
39 32 c
32 39 c
25 32 c
0 0 z
EndSpiro
EndSplineSet
        Fore
        SplineSet
-1 600 m 0
-31 600 l 0
-31 660 l 0
91 660 l 0
91 600 l 0
61 600 l 0
61 240 l 0
91 240 l 0
91 180 l 0
-31 180 l 0
-31 240 l 0
-1 240 l 0
-1 600 l 0
Z
30 -5 m 0
39 -5 48 -1 54 5 c 0
61 11 65 20 65 30 c 0
64 39 61 48 54 54 c 0
48 61 39 64 30 65 c 0
20 65 11 61 5 54 c 0
-1 48 -4 39 -5 30 c 0
-5 20 -1 11 5 5 c 0
11 -1 20 -5 30 -5 c 0
Z
Spiro
-1 600 v
-31 600 v
-31 660 v
91 660 v
91 600 v
61 600 v
61 240 v
91 240 v
91 180 v
-31 180 v
-31 240 v
-1 240 v
30 -5 c
65 30 c
30 65 c
-5 30 c
0 0 z
EndSpiro
EndSplineSet
        EndChar
StartChar: "
Encoding: 34 34 0
Width: 313
InSpiro: 1
        Flags: H
        LayerCount: 2
        Back
        SplineSet
30 630 m 0
0 630 l 0
0 634 l 0
64 634 l 0
64 630 l 0
34 630 l 0
34 484 l 0
64 484 l 0
64 480 l 0
0 480 l 0
0 484 l 0
30 484 l 0
30 630 l 0
Z
179 630 m 0
149 630 l 0
149 634 l 0
214 634 l 0
214 630 l 0
184 630 l 0
184 484 l 0
214 484 l 0
214 480 l 0
149 480 l 0
149 484 l 0
179 484 l 0
179 630 l 0
Z
Spiro
30 630 v
0 630 v
0 634 v
64 634 v
64 630 v
34 630 v
34 484 v
64 484 v
64 480 v
0 480 v
0 484 v
30 484 v
179 630 v
149 630 v
149 634 v
214 634 v
214 630 v
184 630 v
184 484 v
214 484 v
214 480 v
149 480 v
149 484 v
179 484 v
0 0 z
EndSpiro
EndSplineSet
        Fore
        SplineSet
-1 600 m 0
-31 600 l 0
-31 660 l 0
91 660 l 0
91 600 l 0
61 600 l 0
61 510 l 0
91 510 l 0
91 450 l 0
-31 450 l 0
-31 510 l 0
-1 510 l 0
-1 600 l 0
Z
148 600 m 0
118 600 l 0
118 660 l 0
241 660 l 0
241 600 l 0
211 600 l 0
211 510 l 0
241 510 l 0
241 450 l 0
118 450 l 0
118 510 l 0
148 510 l 0
148 600 l 0
Z
Spiro
-1 600 v
-31 600 v
-31 660 v
91 660 v
91 600 v
61 600 v
61 510 v
91 510 v
91 450 v
-31 450 v
-31 510 v
-1 510 v
148 600 v
118 600 v
118 660 v
241 660 v
241 600 v
211 600 v
211 510 v
241 510 v
241 450 v
118 450 v
118 510 v
148 510 v
0 0 z
EndSpiro
EndSplineSet
        EndChar
StartChar: (
Encoding: 40 40 0
Width: 313
InSpiro: 1
        Flags: H
        LayerCount: 2
        Back
        SplineSet
179 636 m 0
179 666 l 0
184 666 l 0
184 602 l 0
179 602 l 0
179 632 l 0
88 560 33 446 34 332 c 0
34 217 88 103 179 32 c 0
179 62 l 0
184 62 l 0
184 -2 l 0
179 -2 l 0
179 28 l 0
86 99 29 215 30 332 c 0
30 448 86 564 179 636 c 0
Z
Spiro
179 636 v
179 666 v
184 666 v
184 602 v
179 602 v
179 632 v
34 332 c
179 32 v
179 62 v
184 62 v
184 -2 v
179 -2 v
179 28 v
30 332 c
0 0 z
EndSpiro
EndSplineSet
        Fore
        SplineSet
148 690 m 0
149 720 l 0
210 720 l 0
210 600 l 0
149 600 l 0
148 630 l 0
91 540 60 435 61 330 c 0
61 224 91 119 148 30 c 0
149 59 l 0
210 59 l 0
210 -59 l 0
149 -59 l 0
148 -30 l 0
53 64 -1 196 -1 330 c 0
0 463 53 595 148 690 c 0
Z
Spiro
148 690 v
149 720 v
210 720 v
210 600 v
149 600 v
148 630 v
61 330 c
148 30 v
149 59 v
210 59 v
210 -59 v
149 -59 v
148 -30 v
-1 330 c
0 0 z
EndSpiro
EndSplineSet
        EndChar
StartChar: +
Encoding: 43 43 0
Width: 463
InSpiro: 1
        Flags: H
        LayerCount: 2
        Back
        SplineSet
34 330 m 0
34 300 l 0
30 300 l 0
30 364 l 0
34 364 l 0
34 334 l 0
329 334 l 0
329 364 l 0
334 364 l 0
334 300 l 0
329 300 l 0
329 330 l 0
34 330 l 0
Z
179 480 m 0
149 480 l 0
149 484 l 0
214 484 l 0
214 480 l 0
184 480 l 0
184 184 l 0
214 184 l 0
214 180 l 0
149 180 l 0
149 184 l 0
179 184 l 0
179 480 l 0
Z
Spiro
34 330 v
34 300 v
30 300 v
30 364 v
34 364 v
34 334 v
329 334 v
329 364 v
334 364 v
334 300 v
329 300 v
329 330 v
179 480 v
149 480 v
149 484 v
214 484 v
214 480 v
184 480 v
184 184 v
214 184 v
214 180 v
149 180 v
149 184 v
179 184 v
0 0 z
EndSpiro
EndSplineSet
        Fore
        SplineSet
61 300 m 0
60 270 l 0
0 270 l 0
0 390 l 0
60 390 l 0
61 360 l 0
298 360 l 0
299 390 l 0
360 390 l 0
360 270 l 0
299 270 l 0
298 300 l 0
61 300 l 0
Z
148 450 m 0
118 450 l 0
118 510 l 0
241 510 l 0
241 450 l 0
211 450 l 0
211 210 l 0
241 210 l 0
241 150 l 0
118 150 l 0
118 210 l 0
148 210 l 0
148 450 l 0
Z
Spiro
61 300 v
60 270 v
0 270 v
0 390 v
60 390 v
61 360 v
298 360 v
299 390 v
360 390 v
360 270 v
299 270 v
298 300 v
148 450 v
118 450 v
118 510 v
241 510 v
241 450 v
211 450 v
211 210 v
241 210 v
241 150 v
118 150 v
118 210 v
148 210 v
0 0 z
EndSpiro
EndSplineSet
        EndChar
StartChar: ,
Encoding: 44 44 0
Width: 313
InSpiro: 1
        Flags: H
        LayerCount: 2
        Back
        SplineSet
179 30 m 0
149 30 l 0
149 34 l 0
214 34 l 0
214 30 l 0
184 30 l 0
182 32 l 0
212 32 l 0
212 28 l 0
147 28 l 0
147 32 l 0
177 32 l 0
179 30 l 0
Z
Spiro
179 30 v
149 30 v
149 34 v
214 34 v
214 30 v
184 30 v
182 32 v
212 32 v
212 28 v
147 28 v
147 32 v
177 32 v
0 0 z
EndSpiro
EndSplineSet
        Fore
        SplineSet
148 0 m 0
118 0 l 0
118 60 l 0
241 60 l 0
241 0 l 0
211 0 l 0
181 30 l 0
211 29 l 0
211 -29 l 0
88 -30 l 0
88 29 l 0
118 30 l 0
148 0 l 0
Z
Spiro
148 0 v
118 0 v
118 60 v
241 60 v
241 0 v
211 0 v
181 30 v
211 29 v
211 -29 v
88 -30 v
88 29 v
118 30 v
0 0 z
EndSpiro
EndSplineSet
        EndChar
StartChar: -
Encoding: 45 45 0
Width: 403
InSpiro: 1
        Flags: H
        LayerCount: 2
        Back
        SplineSet
34 330 m 0
34 300 l 0
30 300 l 0
30 364 l 0
34 364 l 0
34 334 l 0
269 334 l 0
269 364 l 0
274 364 l 0
274 300 l 0
269 300 l 0
269 330 l 0
34 330 l 0
Z
Spiro
34 330 v
34 300 v
30 300 v
30 364 v
34 364 v
34 334 v
269 334 v
269 364 v
274 364 v
274 300 v
269 300 v
269 330 v
0 0 z
EndSpiro
EndSplineSet
        Fore
        SplineSet
61 300 m 0
60 270 l 0
0 270 l 0
0 390 l 0
60 390 l 0
61 360 l 0
238 360 l 0
239 390 l 0
300 390 l 0
300 270 l 0
239 270 l 0
238 300 l 0
61 300 l 0
Z
Spiro
61 300 v
60 270 v
0 270 v
0 390 v
60 390 v
61 360 v
238 360 v
239 390 v
300 390 v
300 270 v
239 270 v
238 300 v
0 0 z
EndSpiro
EndSplineSet
        EndChar
StartChar: /
Encoding: 47 47 0
Width: 463
InSpiro: 1
        Flags: H
        LayerCount: 2
        Back
        SplineSet
329 632 m 0
299 632 l 0
299 636 l 0
364 636 l 0
364 632 l 0
334 632 l 0
34 32 l 0
64 32 l 0
64 28 l 0
0 28 l 0
0 32 l 0
30 32 l 0
329 632 l 0
Z
Spiro
329 632 v
299 632 v
299 636 v
364 636 v
364 632 v
334 632 v
34 32 v
64 32 v
64 28 v
0 28 v
0 32 v
30 32 v
0 0 z
EndSpiro
EndSplineSet
        Fore
        SplineSet
298 630 m 0
268 630 l 0
268 690 l 0
391 690 l 0
391 630 l 0
361 630 l 0
61 30 l 0
91 29 l 0
91 -29 l 0
-31 -30 l 0
-31 29 l 0
-1 30 l 0
298 630 l 0
Z
Spiro
298 630 v
268 630 v
268 690 v
391 690 v
391 630 v
361 630 v
61 30 v
91 29 v
91 -29 v
-31 -30 v
-31 29 v
-1 30 v
0 0 z
EndSpiro
EndSplineSet
        EndChar
StartChar: 1
Encoding: 49 49 0
Width: 223
InSpiro: 1
        Flags: H
        LayerCount: 2
        Back
        SplineSet
34 514 m 0
64 514 l 0
64 510 l 0
0 510 l 0
0 514 l 0
30 514 l 0
33 634 l 0
38 634 l 0
38 34 l 0
68 34 l 0
68 30 l 0
4 30 l 0
4 34 l 0
33 34 l 0
33 511 l 0
34 514 l 0
Z
Spiro
34 514 v
64 514 v
64 510 v
0 510 v
0 514 v
30 514 v
33 634 v
38 634 v
38 34 v
68 34 v
68 30 v
4 30 v
4 34 v
33 34 v
33 511 v
0 0 z
EndSpiro
EndSplineSet
        Fore
        SplineSet
61 540 m 0
91 540 l 0
91 480 l 0
-31 480 l 0
-31 540 l 0
-1 540 l 0
58 660 l 0
121 660 l 0
121 60 l 0
151 60 l 0
151 0 l 0
28 0 l 0
28 59 l 0
58 60 l 0
59 502 l 0
61 540 l 0
Z
Spiro
61 540 v
91 540 v
91 480 v
-31 480 v
-31 540 v
-1 540 v
58 660 v
121 660 v
121 60 v
151 60 v
151 0 v
28 0 v
28 59 v
58 60 v
59 502 v
0 0 z
EndSpiro
EndSplineSet
        EndChar
StartChar: 3
Encoding: 51 51 0
Width: 463
InSpiro: 1
        Flags: H
        LayerCount: 2
        Back
        SplineSet
120 0 m 0
120 15 135 30 150 30 c 0
165 30 180 15 180 0 c 0
180 -15 165 -30 150 -30 c 0
135 -30 120 -15 120 0 c 0
Z
120 0 m 0
120 15 135 30 150 30 c 0
165 30 180 15 180 0 c 0
180 -15 165 -30 150 -30 c 0
135 -30 120 -15 120 0 c 0
Z
Spiro
34 534 v
64 534 v
64 530 v
0 530 v
0 534 v
30 534 v
182 633 c
334 482 c
183 330 [
184 330 v
184 300 v
179 300 v
179 364 v
184 364 v
184 334 v
183 334 ]
329 481 c
181 630 c
184 330 v
184 300 v
179 300 v
179 364 v
184 364 v
184 334 v
183 334 ]
334 181 c
182 30 c
30 130 v
0 130 v
0 134 v
64 134 v
64 130 v
34 130 v
181 33 c
329 182 c
183 330 [
0 0 z
EndSpiro
EndSplineSet
        Fore
        SplineSet
120 0 m 0
120 15 135 30 150 30 c 0
165 30 180 15 180 0 c 0
180 -15 165 -30 150 -30 c 0
135 -30 120 -15 120 0 c 0
Z
120 0 m 0
120 15 135 30 150 30 c 0
165 30 180 15 180 0 c 0
180 -15 165 -30 150 -30 c 0
135 -30 120 -15 120 0 c 0
Z
Spiro
61 560 v
91 560 v
91 500 v
-31 500 v
-31 560 v
-1 560 v
182 659 c
361 484 c
181 300 [
211 300 v
210 270 v
149 270 v
149 390 v
210 390 v
211 360 v
181 360 ]
298 475 c
177 600 c
211 300 v
210 270 v
149 270 v
149 390 v
210 390 v
211 360 v
181 360 ]
361 175 c
182 0 c
-1 100 v
-31 100 v
-31 160 v
91 160 v
91 100 v
61 100 v
177 59 c
298 184 c
181 300 [
0 0 z
EndSpiro
EndSplineSet
        EndChar
StartChar: 6
Encoding: 54 54 0
Width: 463
InSpiro: 1
        Flags: H
        LayerCount: 2
        Back
        SplineSet
334 534 m 0
364 534 l 0
364 530 l 0
299 530 l 0
299 534 l 0
329 534 l 0
321 565 301 593 274 611 c 0
247 628 213 635 182 630 c 0
152 624 124 608 103 587 c 0
82 565 67 538 56 510 c 0
36 453 36 391 34 331 c 0
31 268 28 205 48 146 c 0
58 116 74 89 97 68 c 0
120 47 150 33 182 33 c 0
205 32 228 39 247 50 c 0
267 62 284 79 297 98 c 0
322 137 330 184 329 231 c 0
327 275 315 321 290 358 c 0
265 395 225 424 181 430 c 0
149 434 116 426 89 409 c 0
63 391 42 364 34 334 c 0
64 334 l 0
64 330 l 0
0 330 l 0
0 334 l 0
30 334 l 0
39 365 60 393 87 411 c 0
115 429 149 437 182 433 c 0
227 427 268 398 294 361 c 0
319 323 332 277 334 232 c 0
336 184 326 135 300 95 c 0
287 76 269 59 249 47 c 0
228 35 204 29 181 30 c 0
149 31 119 45 96 66 c 0
72 87 56 115 45 145 c 0
24 204 27 269 30 332 c 0
32 392 33 455 54 512 c 0
65 540 80 567 102 589 c 0
123 611 151 627 181 633 c 0
213 639 249 632 277 614 c 0
305 595 326 566 334 534 c 0
Z
Spiro
334 534 v
364 534 v
364 530 v
299 530 v
299 534 v
329 534 v
182 630 c
34 331 c
182 33 c
329 231 c
181 430 c
34 334 v
64 334 v
64 330 v
0 330 v
0 334 v
30 334 v
182 433 c
334 232 c
181 30 c
30 332 c
181 633 c
0 0 z
EndSpiro
EndSplineSet
        Fore
        SplineSet
361 560 m 0
391 560 l 0
391 500 l 0
268 500 l 0
268 560 l 0
298 560 l 0
284 576 267 589 247 596 c 0
227 603 205 604 185 600 c 0
158 593 135 578 117 558 c 0
99 538 87 513 79 487 c 0
63 436 64 381 61 328 c 0
57 272 50 216 65 162 c 0
72 135 85 110 105 91 c 0
125 71 152 59 180 59 c 0
199 58 218 65 234 75 c 0
250 85 264 100 274 116 c 0
294 149 300 189 298 228 c 0
295 265 286 303 265 335 c 0
245 367 213 392 176 400 c 0
155 404 133 402 113 395 c 0
92 388 74 376 61 360 c 0
91 360 l 0
91 300 l 0
-31 300 l 0
-31 360 l 0
-1 360 l 0
14 393 41 422 74 440 c 0
107 457 146 464 183 459 c 0
234 451 281 419 312 377 c 0
342 335 358 283 361 231 c 0
363 175 351 118 319 73 c 0
303 50 283 31 258 18 c 0
234 5 206 -1 179 0 c 0
144 1 110 16 83 39 c 0
56 61 37 91 23 124 c 0
-2 188 -3 261 -1 331 c 0
1 397 6 465 32 527 c 0
45 558 63 587 87 610 c 0
111 633 141 651 174 659 c 0
211 667 251 662 285 644 c 0
319 626 347 595 361 560 c 0
Z
Spiro
361 560 v
391 560 v
391 500 v
268 500 v
268 560 v
298 560 v
185 600 c
61 328 c
180 59 c
298 228 c
176 400 c
61 360 v
91 360 v
91 300 v
-31 300 v
-31 360 v
-1 360 v
183 459 c
361 231 c
179 0 c
-1 331 c
174 659 c
0 0 z
EndSpiro
EndSplineSet
        EndChar
StartChar: A
Encoding: 65 65 0
Width: 463
InSpiro: 1
        Flags: H
        LayerCount: 2
        Back
        SplineSet
34 34 m 0
64 34 l 0
64 30 l 0
0 30 l 0
0 34 l 0
30 34 l 0
66 182 l 0
179 634 l 0
184 634 l 0
297 182 l 0
334 34 l 0
364 34 l 0
364 30 l 0
299 30 l 0
299 34 l 0
329 34 l 0
292 181 l 0
182 623 l 0
71 181 l 0
34 34 l 0
Z
71 180 m 0
71 150 l 0
66 150 l 0
66 214 l 0
71 214 l 0
71 184 l 0
292 184 l 0
292 214 l 0
297 214 l 0
297 150 l 0
292 150 l 0
292 180 l 0
71 180 l 0
Z
Spiro
34 34 v
64 34 v
64 30 v
0 30 v
0 34 v
30 34 v
66 182 v
179 634 v
184 634 v
297 182 v
334 34 v
364 34 v
364 30 v
299 30 v
299 34 v
329 34 v
292 181 v
182 623 v
71 181 v
71 180 v
71 150 v
66 150 v
66 214 v
71 214 v
71 184 v
292 184 v
292 214 v
297 214 v
297 150 v
292 150 v
292 180 v
0 0 z
EndSpiro
EndSplineSet
        Fore
        SplineSet
61 60 m 0
91 60 l 0
91 0 l 0
-31 0 l 0
-31 59 l 0
-1 60 l 0
36 187 l 0
148 660 l 0
211 660 l 0
323 187 l 0
361 60 l 0
391 60 l 0
391 0 l 0
268 0 l 0
268 59 l 0
298 60 l 0
262 172 l 0
180 506 l 0
97 172 l 0
61 60 l 0
Z
98 150 m 0
97 120 l 0
36 120 l 0
36 240 l 0
97 240 l 0
98 210 l 0
261 210 l 0
262 240 l 0
323 240 l 0
323 120 l 0
262 120 l 0
261 150 l 0
98 150 l 0
Z
Spiro
61 60 v
91 60 v
91 0 v
-31 0 v
-31 59 v
-1 60 v
36 187 v
148 660 v
211 660 v
323 187 v
361 60 v
391 60 v
391 0 v
268 0 v
268 59 v
298 60 v
262 172 v
180 506 v
97 172 v
98 150 v
97 120 v
36 120 v
36 240 v
97 240 v
98 210 v
261 210 v
262 240 v
323 240 v
323 120 v
262 120 v
261 150 v
0 0 z
EndSpiro
EndSplineSet
        EndChar
StartChar: C
Encoding: 67 67 0
Width: 463
InSpiro: 1
        Flags: H
        LayerCount: 2
        Back
        SplineSet
334 534 m 0
364 534 l 0
364 530 l 0
299 530 l 0
299 534 l 0
329 534 l 0
321 565 301 593 274 610 c 0
247 628 213 635 182 630 c 0
152 624 124 609 102 588 c 0
81 566 65 539 55 511 c 0
34 454 34 392 34 332 c 0
33 271 34 208 54 151 c 0
65 123 81 96 102 75 c 0
124 53 152 37 182 33 c 0
213 27 247 34 274 52 c 0
301 70 321 98 329 130 c 0
299 130 l 0
299 134 l 0
364 134 l 0
364 130 l 0
334 130 l 0
326 97 305 68 277 49 c 0
249 31 214 24 181 30 c 0
150 35 123 51 101 72 c 0
79 94 63 121 52 149 c 0
31 207 30 269 30 331 c 0
29 392 30 455 52 512 c 0
63 541 79 568 100 590 c 0
122 611 150 627 181 633 c 0
213 638 248 631 276 613 c 0
305 595 325 566 334 534 c 0
Z
Spiro
334 534 v
364 534 v
364 530 v
299 530 v
299 534 v
329 534 v
182 630 c
34 332 c
182 33 c
329 130 v
299 130 v
299 134 v
364 134 v
364 130 v
334 130 v
181 30 c
30 331 c
181 633 c
0 0 z
EndSpiro
EndSplineSet
        Fore
        SplineSet
361 560 m 0
391 560 l 0
391 500 l 0
268 500 l 0
268 560 l 0
298 560 l 0
284 576 266 588 247 595 c 0
227 602 205 604 185 600 c 0
158 594 134 579 116 559 c 0
98 539 85 515 76 490 c 0
60 438 61 383 61 330 c 0
60 275 59 220 76 169 c 0
84 143 97 119 116 99 c 0
134 79 158 64 185 59 c 0
205 54 227 56 247 63 c 0
267 70 284 83 298 100 c 0
268 100 l 0
268 160 l 0
391 160 l 0
391 100 l 0
361 100 l 0
346 64 319 33 285 15 c 0
251 -2 211 -8 174 0 c 0
141 7 110 24 86 47 c 0
61 70 43 99 30 130 c 0
3 192 0 261 -1 329 c 0
-1 396 3 465 29 527 c 0
43 558 61 587 86 611 c 0
110 634 140 651 174 659 c 0
211 667 251 661 285 643 c 0
319 625 346 595 361 560 c 0
Z
Spiro
361 560 v
391 560 v
391 500 v
268 500 v
268 560 v
298 560 v
185 600 c
61 330 c
185 59 c
298 100 v
268 100 v
268 160 v
391 160 v
391 100 v
361 100 v
174 0 c
-1 329 c
174 659 c
0 0 z
EndSpiro
EndSplineSet
        EndChar
StartChar: F
Encoding: 70 70 0
Width: 463
InSpiro: 1
        Flags: H
        LayerCount: 2
        Back
        SplineSet
329 634 m 0
329 664 l 0
334 664 l 0
334 600 l 0
329 600 l 0
329 630 l 0
34 630 l 0
34 34 l 0
64 34 l 0
64 30 l 0
0 30 l 0
0 34 l 0
30 34 l 0
30 634 l 0
30 634 l 0
329 634 l 0
Z
34 330 m 0
34 300 l 0
30 300 l 0
30 364 l 0
34 364 l 0
34 334 l 0
229 334 l 0
229 364 l 0
234 364 l 0
234 300 l 0
229 300 l 0
229 330 l 0
34 330 l 0
Z
Spiro
329 634 v
329 664 v
334 664 v
334 600 v
329 600 v
329 630 v
34 630 v
34 34 v
64 34 v
64 30 v
0 30 v
0 34 v
30 34 v
30 634 v
30 634 v
34 330 v
34 300 v
30 300 v
30 364 v
34 364 v
34 334 v
229 334 v
229 364 v
234 364 v
234 300 v
229 300 v
229 330 v
0 0 z
EndSpiro
EndSplineSet
        Fore
        SplineSet
298 660 m 0
299 690 l 0
360 690 l 0
360 570 l 0
299 570 l 0
298 600 l 0
61 600 l 0
61 60 l 0
91 60 l 0
91 0 l 0
-31 0 l 0
-31 59 l 0
-1 60 l 0
-1 660 l 0
-1 660 l 0
298 660 l 0
Z
61 300 m 0
60 270 l 0
0 270 l 0
0 390 l 0
60 390 l 0
61 360 l 0
198 360 l 0
199 390 l 0
260 390 l 0
260 270 l 0
199 270 l 0
198 300 l 0
61 300 l 0
Z
Spiro
298 660 v
299 690 v
360 690 v
360 570 v
299 570 v
298 600 v
61 600 v
61 60 v
91 60 v
91 0 v
-31 0 v
-31 59 v
-1 60 v
-1 660 v
-1 660 v
61 300 v
60 270 v
0 270 v
0 390 v
60 390 v
61 360 v
198 360 v
199 390 v
260 390 v
260 270 v
199 270 v
198 300 v
0 0 z
EndSpiro
EndSplineSet
        EndChar
StartChar: G
Encoding: 71 71 0
Width: 463
InSpiro: 1
        Flags: H
        LayerCount: 2
        Back
        SplineSet
334 534 m 0
364 534 l 0
364 530 l 0
299 530 l 0
299 534 l 0
329 534 l 0
320 565 300 592 274 610 c 0
247 627 213 635 182 630 c 0
152 625 124 609 102 588 c 0
80 567 64 540 54 512 c 0
33 455 32 392 34 332 c 0
34 271 37 210 58 154 c 0
68 126 84 99 105 78 c 0
126 56 152 40 182 33 c 0
202 28 223 27 243 33 c 0
263 38 282 49 296 65 c 0
309 80 319 99 323 120 c 0
328 140 329 161 329 182 c 0
329 330 l 0
184 330 l 0
184 300 l 0
179 300 l 0
179 364 l 0
184 364 l 0
184 334 l 0
334 334 l 0
334 334 l 0
334 182 l 0
334 160 333 138 328 118 c 0
323 97 313 77 299 61 c 0
284 45 265 34 244 29 c 0
223 24 201 24 181 30 c 0
151 37 125 54 104 75 c 0
83 97 67 124 56 152 c 0
34 208 31 270 30 331 c 0
28 392 29 455 51 513 c 0
62 542 78 569 100 590 c 0
122 612 150 627 181 633 c 0
213 638 248 631 276 613 c 0
304 595 325 566 334 534 c 0
Z
Spiro
334 534 v
364 534 v
364 530 v
299 530 v
299 534 v
329 534 v
182 630 c
34 332 c
182 33 c
329 182 [
329 330 v
184 330 v
184 300 v
179 300 v
179 364 v
184 364 v
184 334 v
334 334 v
334 334 v
334 182 ]
181 30 c
30 331 c
181 633 c
0 0 z
EndSpiro
EndSplineSet
        Fore
        SplineSet
361 560 m 0
391 560 l 0
391 500 l 0
268 500 l 0
268 560 l 0
298 560 l 0
284 576 266 588 247 595 c 0
227 603 205 604 185 600 c 0
158 594 134 579 116 559 c 0
98 539 85 515 77 489 c 0
60 438 61 383 61 330 c 0
60 275 58 219 75 167 c 0
84 141 97 117 116 97 c 0
135 77 160 63 187 59 c 0
202 56 219 57 234 62 c 0
249 67 263 77 273 89 c 0
284 101 290 116 294 132 c 0
297 147 298 163 298 180 c 0
298 300 l 0
211 300 l 0
210 270 l 0
149 270 l 0
149 390 l 0
210 390 l 0
211 360 l 0
361 360 l 0
361 360 l 0
361 180 l 0
361 153 360 127 354 101 c 0
348 76 335 52 317 33 c 0
299 14 275 1 249 -3 c 0
224 -9 197 -7 172 0 c 0
140 9 111 27 87 51 c 0
64 74 46 103 33 133 c 0
6 194 0 262 -1 329 c 0
-2 396 2 466 28 528 c 0
42 559 60 588 85 611 c 0
110 634 140 652 174 659 c 0
211 666 251 661 285 643 c 0
319 625 346 595 361 560 c 0
Z
Spiro
361 560 v
391 560 v
391 500 v
268 500 v
268 560 v
298 560 v
185 600 c
61 330 c
187 59 c
298 180 [
298 300 v
211 300 v
210 270 v
149 270 v
149 390 v
210 390 v
211 360 v
361 360 v
361 360 v
361 180 ]
172 0 c
-1 329 c
174 659 c
0 0 z
EndSpiro
EndSplineSet
        EndChar
StartChar: H
Encoding: 72 72 0
Width: 463
InSpiro: 1
        Flags: H
        LayerCount: 2
        Back
        SplineSet
34 34 m 0
64 34 l 0
64 30 l 0
0 30 l 0
0 34 l 0
30 34 l 0
30 630 l 0
0 630 l 0
0 634 l 0
64 634 l 0
64 630 l 0
34 630 l 0
34 34 l 0
Z
34 330 m 0
34 300 l 0
30 300 l 0
30 364 l 0
34 364 l 0
34 334 l 0
329 334 l 0
329 364 l 0
334 364 l 0
334 300 l 0
329 300 l 0
329 330 l 0
34 330 l 0
Z
334 34 m 0
364 34 l 0
364 30 l 0
299 30 l 0
299 34 l 0
329 34 l 0
329 630 l 0
299 630 l 0
299 634 l 0
364 634 l 0
364 630 l 0
334 630 l 0
334 34 l 0
Z
Spiro
34 34 v
64 34 v
64 30 v
0 30 v
0 34 v
30 34 v
30 630 v
0 630 v
0 634 v
64 634 v
64 630 v
34 630 v
34 330 v
34 300 v
30 300 v
30 364 v
34 364 v
34 334 v
329 334 v
329 364 v
334 364 v
334 300 v
329 300 v
329 330 v
334 34 v
364 34 v
364 30 v
299 30 v
299 34 v
329 34 v
329 630 v
299 630 v
299 634 v
364 634 v
364 630 v
334 630 v
0 0 z
EndSpiro
EndSplineSet
        Fore
        SplineSet
61 60 m 0
91 60 l 0
91 0 l 0
-31 0 l 0
-31 59 l 0
-1 60 l 0
-1 600 l 0
-31 600 l 0
-31 660 l 0
91 660 l 0
91 600 l 0
61 600 l 0
61 60 l 0
Z
61 300 m 0
60 270 l 0
0 270 l 0
0 390 l 0
60 390 l 0
61 360 l 0
298 360 l 0
299 390 l 0
360 390 l 0
360 270 l 0
299 270 l 0
298 300 l 0
61 300 l 0
Z
361 60 m 0
391 60 l 0
391 0 l 0
268 0 l 0
268 59 l 0
298 60 l 0
298 600 l 0
268 600 l 0
268 660 l 0
391 660 l 0
391 600 l 0
361 600 l 0
361 60 l 0
Z
Spiro
61 60 v
91 60 v
91 0 v
-31 0 v
-31 59 v
-1 60 v
-1 600 v
-31 600 v
-31 660 v
91 660 v
91 600 v
61 600 v
61 300 v
60 270 v
0 270 v
0 390 v
60 390 v
61 360 v
298 360 v
299 390 v
360 390 v
360 270 v
299 270 v
298 300 v
361 60 v
391 60 v
391 0 v
268 0 v
268 59 v
298 60 v
298 600 v
268 600 v
268 660 v
391 660 v
391 600 v
361 600 v
0 0 z
EndSpiro
EndSplineSet
        EndChar
StartChar: N
Encoding: 78 78 0
Width: 463
InSpiro: 1
        Flags: H
        LayerCount: 2
        Back
        SplineSet
34 34 m 0
64 34 l 0
64 30 l 0
0 30 l 0
0 34 l 0
30 34 l 0
30 634 l 0
34 634 l 0
329 40 l 0
329 630 l 0
299 630 l 0
299 634 l 0
364 634 l 0
364 630 l 0
334 630 l 0
334 30 l 0
329 30 l 0
34 623 l 0
34 34 l 0
Z
Spiro
34 34 v
64 34 v
64 30 v
0 30 v
0 34 v
30 34 v
30 634 v
34 634 v
329 40 v
329 630 v
299 630 v
299 634 v
364 634 v
364 630 v
334 630 v
334 30 v
329 30 v
34 623 v
0 0 z
EndSpiro
EndSplineSet
        Fore
        SplineSet
61 60 m 0
91 60 l 0
91 0 l 0
-31 0 l 0
-31 59 l 0
-1 60 l 0
-1 660 l 0
61 660 l 0
299 157 l 0
298 600 l 0
268 600 l 0
268 660 l 0
391 660 l 0
391 600 l 0
361 600 l 0
361 0 l 0
298 0 l 0
60 502 l 0
61 60 l 0
Z
Spiro
61 60 v
91 60 v
91 0 v
-31 0 v
-31 59 v
-1 60 v
-1 660 v
61 660 v
299 157 v
298 600 v
268 600 v
268 660 v
391 660 v
391 600 v
361 600 v
361 0 v
298 0 v
60 502 v
0 0 z
EndSpiro
EndSplineSet
        EndChar
StartChar: S
Encoding: 83 83 0
Width: 463
InSpiro: 1
        Flags: H
        LayerCount: 2
        Back
        SplineSet
334 534 m 0
364 534 l 0
364 530 l 0
299 530 l 0
299 534 l 0
329 534 l 0
317 563 297 588 271 605 c 0
244 623 213 631 182 630 c 0
143 628 106 610 80 583 c 0
53 556 36 519 34 481 c 0
32 458 35 436 43 415 c 0
51 394 64 376 83 363 c 0
111 342 147 337 182 332 c 0
217 328 254 323 283 303 c 0
301 289 316 270 324 248 c 0
333 227 335 203 334 181 c 0
330 142 313 104 286 76 c 0
258 49 220 31 182 30 c 0
149 28 116 37 89 55 c 0
62 72 41 99 30 130 c 0
0 130 l 0
0 134 l 0
64 134 l 0
64 130 l 0
34 130 l 0
44 100 65 74 91 57 c 0
117 40 149 31 181 33 c 0
219 34 256 52 283 79 c 0
309 106 326 143 329 182 c 0
330 204 327 226 319 247 c 0
311 268 298 286 280 300 c 0
251 320 214 325 180 330 c 0
145 334 108 339 80 360 c 0
61 373 47 392 38 414 c 0
30 435 27 459 30 482 c 0
33 520 50 558 77 585 c 0
104 613 142 630 181 633 c 0
213 634 246 626 273 608 c 0
301 590 322 564 334 534 c 0
Z
Spiro
334 534 v
364 534 v
364 530 v
299 530 v
299 534 v
329 534 v
182 630 c
34 481 c
83 363 c
283 303 c
334 181 c
182 30 c
30 130 v
0 130 v
0 134 v
64 134 v
64 130 v
34 130 v
181 33 c
329 182 c
280 300 c
80 360 c
30 482 c
181 633 c
0 0 z
EndSpiro
EndSplineSet
        Fore
        SplineSet
361 560 m 0
391 560 l 0
391 500 l 0
268 500 l 0
268 560 l 0
298 560 l 0
267 589 223 605 181 600 c 0
150 596 120 582 98 560 c 0
76 537 63 507 61 477 c 0
59 459 62 442 68 426 c 0
74 409 84 395 98 384 c 0
111 372 127 364 144 359 c 0
161 354 178 352 196 350 c 0
231 345 267 342 298 324 c 0
322 309 340 286 350 260 c 0
361 233 364 204 361 177 c 0
355 131 335 88 302 55 c 0
270 23 226 3 181 0 c 0
144 -2 107 5 75 22 c 0
43 40 16 67 -1 100 c 0
-31 100 l 0
-31 160 l 0
91 160 l 0
91 100 l 0
61 100 l 0
91 69 135 54 178 59 c 0
208 62 238 76 260 98 c 0
282 121 295 151 298 182 c 0
299 199 296 216 290 232 c 0
284 249 274 263 261 275 c 0
247 286 231 293 214 299 c 0
197 304 179 306 162 308 c 0
127 313 91 316 61 335 c 0
36 349 18 372 8 399 c 0
-1 425 -4 454 -1 482 c 0
4 527 24 570 56 602 c 0
89 634 132 655 178 659 c 0
214 662 251 654 284 636 c 0
316 619 343 592 361 560 c 0
Z
Spiro
361 560 v
391 560 v
391 500 v
268 500 v
268 560 v
298 560 v
181 600 c
61 477 c
98 384 c
298 324 c
361 177 c
181 0 c
-1 100 v
-31 100 v
-31 160 v
91 160 v
91 100 v
61 100 v
178 59 c
298 182 c
261 275 c
61 335 c
-1 482 c
178 659 c
0 0 z
EndSpiro
EndSplineSet
        EndChar
StartChar: T
Encoding: 84 84 0
Width: 463
InSpiro: 1
        Flags: H
        LayerCount: 2
        Back
        SplineSet
34 630 m 0
34 600 l 0
30 600 l 0
30 664 l 0
34 664 l 0
34 634 l 0
329 634 l 0
329 664 l 0
334 664 l 0
334 600 l 0
329 600 l 0
329 630 l 0
34 630 l 0
Z
179 630 m 0
149 630 l 0
149 634 l 0
214 634 l 0
214 630 l 0
184 630 l 0
184 34 l 0
214 34 l 0
214 30 l 0
149 30 l 0
149 34 l 0
179 34 l 0
179 630 l 0
Z
Spiro
34 630 v
34 600 v
30 600 v
30 664 v
34 664 v
34 634 v
329 634 v
329 664 v
334 664 v
334 600 v
329 600 v
329 630 v
179 630 v
149 630 v
149 634 v
214 634 v
214 630 v
184 630 v
184 34 v
214 34 v
214 30 v
149 30 v
149 34 v
179 34 v
0 0 z
EndSpiro
EndSplineSet
        Fore
        SplineSet
61 600 m 0
60 570 l 0
0 570 l 0
0 690 l 0
60 690 l 0
61 660 l 0
298 660 l 0
299 690 l 0
360 690 l 0
360 570 l 0
299 570 l 0
298 600 l 0
61 600 l 0
Z
148 600 m 0
118 600 l 0
118 660 l 0
241 660 l 0
241 600 l 0
211 600 l 0
211 60 l 0
241 60 l 0
241 0 l 0
118 0 l 0
118 59 l 0
148 60 l 0
148 600 l 0
Z
Spiro
61 600 v
60 570 v
0 570 v
0 690 v
60 690 v
61 660 v
298 660 v
299 690 v
360 690 v
360 570 v
299 570 v
298 600 v
148 600 v
118 600 v
118 660 v
241 660 v
241 600 v
211 600 v
211 60 v
241 60 v
241 0 v
118 0 v
118 59 v
148 60 v
0 0 z
EndSpiro
EndSplineSet
        EndChar
StartChar: W
Encoding: 87 87 0
Width: 763
InSpiro: 1
        Flags: H
        LayerCount: 2
        Back
        SplineSet
30 630 m 0
0 630 l 0
0 634 l 0
64 634 l 0
64 630 l 0
34 630 l 0
182 40 l 0
329 634 l 0
334 634 l 0
482 40 l 0
629 630 l 0
599 630 l 0
599 634 l 0
664 634 l 0
664 630 l 0
634 630 l 0
484 30 l 0
479 30 l 0
332 623 l 0
184 30 l 0
179 30 l 0
30 630 l 0
Z
Spiro
30 630 v
0 630 v
0 634 v
64 634 v
64 630 v
34 630 v
182 40 v
329 634 v
334 634 v
482 40 v
629 630 v
599 630 v
599 634 v
664 634 v
664 630 v
634 630 v
484 30 v
479 30 v
332 623 v
184 30 v
179 30 v
0 0 z
EndSpiro
EndSplineSet
        Fore
        SplineSet
-1 600 m 0
-31 600 l 0
-31 660 l 0
91 660 l 0
91 600 l 0
61 600 l 0
180 153 l 0
298 660 l 0
361 660 l 0
480 153 l 0
598 600 l 0
568 600 l 0
568 660 l 0
691 660 l 0
691 600 l 0
661 600 l 0
511 0 l 0
448 0 l 0
330 506 l 0
211 0 l 0
148 0 l 0
-1 600 l 0
Z
Spiro
-1 600 v
-31 600 v
-31 660 v
91 660 v
91 600 v
61 600 v
180 153 v
298 660 v
361 660 v
480 153 v
598 600 v
568 600 v
568 660 v
691 660 v
691 600 v
661 600 v
511 0 v
448 0 v
330 506 v
211 0 v
148 0 v
0 0 z
EndSpiro
EndSplineSet
        EndChar
StartChar: Z
Encoding: 90 90 0
Width: 463
InSpiro: 1
        Flags: H
        LayerCount: 2
        Back
        SplineSet
34 630 m 0
34 600 l 0
30 600 l 0
30 664 l 0
34 664 l 0
34 634 l 0
334 634 l 0
334 634 l 0
35 34 l 0
329 34 l 0
329 64 l 0
334 64 l 0
334 0 l 0
329 0 l 0
329 30 l 0
30 30 l 0
30 30 l 0
328 630 l 0
34 630 l 0
Z
Spiro
34 630 v
34 600 v
30 600 v
30 664 v
34 664 v
34 634 v
334 634 v
334 634 v
35 34 v
329 34 v
329 64 v
334 64 v
334 0 v
329 0 v
329 30 v
30 30 v
30 30 v
328 630 v
0 0 z
EndSpiro
EndSplineSet
        Fore
        SplineSet
61 600 m 0
60 570 l 0
0 570 l 0
0 690 l 0
60 690 l 0
61 660 l 0
361 660 l 0
361 660 l 0
79 60 l 0
298 60 l 0
299 90 l 0
360 90 l 0
360 -29 l 0
299 -29 l 0
298 0 l 0
-1 0 l 0
-1 0 l 0
280 600 l 0
61 600 l 0
Z
Spiro
61 600 v
60 570 v
0 570 v
0 690 v
60 690 v
61 660 v
361 660 v
361 660 v
79 60 v
298 60 v
299 90 v
360 90 v
360 -29 v
299 -29 v
298 0 v
-1 0 v
-1 0 v
280 600 v
0 0 z
EndSpiro
EndSplineSet
        EndChar
StartChar: a
Encoding: 97 97 0
Width: 463
InSpiro: 1
        Flags: H
        LayerCount: 2
        Back
        SplineSet
329 390 m 0
299 390 l 0
299 394 l 0
364 394 l 0
364 390 l 0
334 390 l 0
334 34 l 0
364 34 l 0
364 30 l 0
299 30 l 0
299 34 l 0
329 34 l 0
329 390 l 0
Z
334 294 m 0
364 294 l 0
364 290 l 0
299 290 l 0
299 294 l 0
329 294 l 0
318 323 298 350 272 367 c 0
245 384 213 392 182 390 c 0
139 386 100 363 73 330 c 0
47 297 34 254 34 212 c 0
33 169 47 126 73 93 c 0
99 59 139 36 182 33 c 0
213 30 245 38 272 56 c 0
298 73 318 99 329 130 c 0
299 130 l 0
299 134 l 0
364 134 l 0
364 130 l 0
334 130 l 0
323 98 302 71 274 53 c 0
247 35 213 27 181 30 c 0
138 33 97 57 70 90 c 0
43 124 30 167 30 211 c 0
29 254 43 297 70 331 c 0
97 365 137 389 181 393 c 0
213 395 247 387 274 369 c 0
302 352 323 324 334 294 c 0
Z
Spiro
329 390 v
299 390 v
299 394 v
364 394 v
364 390 v
334 390 v
334 34 v
364 34 v
364 30 v
299 30 v
299 34 v
329 34 v
334 294 v
364 294 v
364 290 v
299 290 v
299 294 v
329 294 v
182 390 c
34 212 c
182 33 c
329 130 v
299 130 v
299 134 v
364 134 v
364 130 v
334 130 v
181 30 c
30 211 c
181 393 c
0 0 z
EndSpiro
EndSplineSet
        Fore
        SplineSet
298 360 m 0
268 360 l 0
268 420 l 0
391 420 l 0
391 360 l 0
361 360 l 0
361 60 l 0
391 60 l 0
391 0 l 0
268 0 l 0
268 59 l 0
298 60 l 0
298 360 l 0
Z
361 320 m 0
391 320 l 0
391 260 l 0
268 260 l 0
268 320 l 0
298 320 l 0
268 351 224 366 182 360 c 0
147 354 115 335 94 307 c 0
72 280 61 244 61 210 c 0
60 174 72 139 93 111 c 0
115 84 147 64 182 59 c 0
224 52 269 68 298 100 c 0
268 100 l 0
268 160 l 0
391 160 l 0
391 100 l 0
361 100 l 0
344 66 317 39 284 21 c 0
251 3 213 -3 177 0 c 0
127 5 80 31 48 70 c 0
16 108 0 158 -1 209 c 0
-1 259 15 309 47 348 c 0
79 387 127 413 177 419 c 0
213 422 251 415 284 397 c 0
316 380 343 352 361 320 c 0
Z
Spiro
298 360 v
268 360 v
268 420 v
391 420 v
391 360 v
361 360 v
361 60 v
391 60 v
391 0 v
268 0 v
268 59 v
298 60 v
361 320 v
391 320 v
391 260 v
268 260 v
268 320 v
298 320 v
182 360 c
61 210 c
182 59 c
298 100 v
268 100 v
268 160 v
391 160 v
391 100 v
361 100 v
177 0 c
-1 209 c
177 419 c
0 0 z
EndSpiro
EndSplineSet
        EndChar
StartChar: b
Encoding: 98 98 0
Width: 463
InSpiro: 1
        Flags: H
        LayerCount: 2
        Back
        SplineSet
30 630 m 0
0 630 l 0
0 634 l 0
64 634 l 0
64 630 l 0
34 630 l 0
34 34 l 0
64 34 l 0
64 30 l 0
0 30 l 0
0 34 l 0
30 34 l 0
30 630 l 0
Z
34 294 m 0
64 294 l 0
64 290 l 0
0 290 l 0
0 294 l 0
30 294 l 0
40 324 61 351 89 369 c 0
116 387 149 395 182 393 c 0
225 389 266 366 293 332 c 0
320 298 334 254 334 211 c 0
333 167 320 124 292 90 c 0
265 56 225 33 182 30 c 0
149 27 116 35 88 53 c 0
61 71 40 99 30 130 c 0
0 130 l 0
0 134 l 0
64 134 l 0
64 130 l 0
34 130 l 0
44 99 64 73 90 56 c 0
117 38 149 30 181 33 c 0
223 36 263 59 289 93 c 0
315 126 329 169 329 212 c 0
328 254 315 297 289 330 c 0
262 363 223 386 181 390 c 0
149 392 117 384 90 367 c 0
64 350 44 323 34 294 c 0
Z
Spiro
30 630 v
0 630 v
0 634 v
64 634 v
64 630 v
34 630 v
34 34 v
64 34 v
64 30 v
0 30 v
0 34 v
30 34 v
34 294 v
64 294 v
64 290 v
0 290 v
0 294 v
30 294 v
182 393 c
334 211 c
182 30 c
30 130 v
0 130 v
0 134 v
64 134 v
64 130 v
34 130 v
181 33 c
329 212 c
181 390 c
0 0 z
EndSpiro
EndSplineSet
        Fore
        SplineSet
-1 600 m 0
-31 600 l 0
-31 660 l 0
91 660 l 0
91 600 l 0
61 600 l 0
61 60 l 0
91 60 l 0
91 0 l 0
-31 0 l 0
-31 59 l 0
-1 60 l 0
-1 600 l 0
Z
61 320 m 0
91 320 l 0
91 260 l 0
-31 260 l 0
-31 320 l 0
-1 320 l 0
15 352 42 380 75 397 c 0
107 415 145 422 182 419 c 0
232 413 279 387 311 348 c 0
343 310 361 259 361 209 c 0
360 158 343 108 311 69 c 0
279 31 232 5 182 0 c 0
145 -3 107 3 75 21 c 0
42 39 15 67 -1 100 c 0
-31 100 l 0
-31 160 l 0
91 160 l 0
91 100 l 0
61 100 l 0
89 68 134 52 177 59 c 0
211 64 243 84 265 111 c 0
286 139 298 174 298 210 c 0
297 244 286 280 264 307 c 0
243 335 211 354 177 360 c 0
134 366 90 351 61 320 c 0
Z
Spiro
-1 600 v
-31 600 v
-31 660 v
91 660 v
91 600 v
61 600 v
61 60 v
91 60 v
91 0 v
-31 0 v
-31 59 v
-1 60 v
61 320 v
91 320 v
91 260 v
-31 260 v
-31 320 v
-1 320 v
182 419 c
361 209 c
182 0 c
-1 100 v
-31 100 v
-31 160 v
91 160 v
91 100 v
61 100 v
177 59 c
298 210 c
177 360 c
0 0 z
EndSpiro
EndSplineSet
        EndChar
StartChar: c
Encoding: 99 99 0
Width: 463
InSpiro: 1
        Flags: H
        LayerCount: 2
        Back
        SplineSet
334 296 m 0
364 296 l 0
364 292 l 0
299 292 l 0
299 296 l 0
329 296 l 0
318 325 297 351 271 367 c 0
245 384 213 392 182 390 c 0
139 386 100 363 73 330 c 0
47 297 34 254 34 212 c 0
33 169 47 126 73 93 c 0
99 59 139 36 182 33 c 0
213 30 245 38 271 55 c 0
298 72 318 98 329 128 c 0
299 128 l 0
299 132 l 0
364 132 l 0
364 128 l 0
334 128 l 0
323 97 301 70 274 52 c 0
246 35 213 27 181 30 c 0
138 33 97 57 70 90 c 0
43 124 30 167 30 211 c 0
29 254 43 297 70 331 c 0
97 365 137 389 181 393 c 0
213 395 246 387 274 370 c 0
301 353 322 326 334 296 c 0
Z
Spiro
334 296 v
364 296 v
364 292 v
299 292 v
299 296 v
329 296 v
182 390 c
34 212 c
182 33 c
329 128 v
299 128 v
299 132 v
364 132 v
364 128 v
334 128 v
181 30 c
30 211 c
181 393 c
0 0 z
EndSpiro
EndSplineSet
        Fore
        SplineSet
361 350 m 0
391 350 l 0
391 290 l 0
268 290 l 0
268 350 l 0
298 350 l 0
262 366 220 369 183 360 c 0
149 351 118 332 96 305 c 0
74 278 61 244 61 210 c 0
60 175 73 140 95 113 c 0
117 86 149 67 183 59 c 0
221 49 262 53 298 70 c 0
268 70 l 0
268 130 l 0
391 130 l 0
391 70 l 0
361 70 l 0
338 43 309 23 277 10 c 0
245 -1 210 -5 176 0 c 0
126 7 80 33 48 71 c 0
16 109 0 159 -1 209 c 0
-1 258 16 308 48 346 c 0
80 385 126 411 176 419 c 0
209 424 245 420 277 408 c 0
309 396 338 376 361 350 c 0
Z
Spiro
361 350 v
391 350 v
391 290 v
268 290 v
268 350 v
298 350 v
183 360 c
61 210 c
183 59 c
298 70 v
268 70 v
268 130 v
391 130 v
391 70 v
361 70 v
176 0 c
-1 209 c
176 419 c
0 0 z
EndSpiro
EndSplineSet
        EndChar
StartChar: f
Encoding: 102 102 0
Width: 313
InSpiro: 1
        Flags: H
        LayerCount: 2
        Back
        SplineSet
179 634 m 0
179 664 l 0
184 664 l 0
184 600 l 0
179 600 l 0
179 630 l 0
153 625 130 614 109 599 c 0
89 583 72 563 60 540 c 0
48 518 41 493 37 468 c 0
34 443 33 417 34 392 c 0
34 34 l 0
64 34 l 0
64 30 l 0
0 30 l 0
0 34 l 0
30 34 l 0
30 392 l 0
30 418 30 444 33 469 c 0
37 495 45 521 57 544 c 0
69 567 87 587 107 603 c 0
128 618 153 629 179 634 c 0
Z
34 390 m 0
34 360 l 0
30 360 l 0
30 424 l 0
34 424 l 0
34 394 l 0
179 394 l 0
179 424 l 0
184 424 l 0
184 360 l 0
179 360 l 0
179 390 l 0
34 390 l 0
Z
Spiro
179 634 v
179 664 v
184 664 v
184 600 v
179 600 v
179 630 v
34 392 [
34 34 v
64 34 v
64 30 v
0 30 v
0 34 v
30 34 v
30 392 ]
34 390 v
34 360 v
30 360 v
30 424 v
34 424 v
34 394 v
179 394 v
179 424 v
184 424 v
184 360 v
179 360 v
179 390 v
0 0 z
EndSpiro
EndSplineSet
        Fore
        SplineSet
148 660 m 0
149 690 l 0
210 690 l 0
210 570 l 0
149 570 l 0
148 600 l 0
114 578 89 544 76 507 c 0
62 470 60 429 61 390 c 0
61 60 l 0
91 60 l 0
91 0 l 0
-31 0 l 0
-31 59 l 0
-1 60 l 0
-1 390 l 0
0 445 1 503 25 553 c 0
50 603 94 643 148 660 c 0
Z
61 360 m 0
60 330 l 0
0 330 l 0
0 450 l 0
60 450 l 0
61 420 l 0
148 420 l 0
149 450 l 0
210 450 l 0
210 330 l 0
149 330 l 0
148 360 l 0
61 360 l 0
Z
Spiro
148 660 v
149 690 v
210 690 v
210 570 v
149 570 v
148 600 v
61 390 [
61 60 v
91 60 v
91 0 v
-31 0 v
-31 59 v
-1 60 v
-1 390 ]
61 360 v
60 330 v
0 330 v
0 450 v
60 450 v
61 420 v
148 420 v
149 450 v
210 450 v
210 330 v
149 330 v
148 360 v
0 0 z
EndSpiro
EndSplineSet
        EndChar
StartChar: i
Encoding: 105 105 0
Width: 163
InSpiro: 1
        Flags: H
        LayerCount: 2
        Back
        SplineSet
30 390 m 0
0 390 l 0
0 394 l 0
64 394 l 0
64 390 l 0
34 390 l 0
34 34 l 0
64 34 l 0
64 30 l 0
0 30 l 0
0 34 l 0
30 34 l 0
30 390 l 0
Z
32 505 m 0
33 504 35 505 36 507 c 0
38 508 39 510 39 512 c 0
38 513 38 515 36 516 c 0
35 518 33 518 32 519 c 0
30 519 28 518 27 516 c 0
25 515 25 513 25 512 c 0
24 510 25 508 27 507 c 0
28 505 30 504 32 505 c 0
Z
Spiro
30 390 v
0 390 v
0 394 v
64 394 v
64 390 v
34 390 v
34 34 v
64 34 v
64 30 v
0 30 v
0 34 v
30 34 v
32 505 c
39 512 c
32 519 c
25 512 c
0 0 z
EndSpiro
EndSplineSet
        Fore
        SplineSet
-1 360 m 0
-31 360 l 0
-31 420 l 0
91 420 l 0
91 360 l 0
61 360 l 0
61 60 l 0
91 60 l 0
91 0 l 0
-31 0 l 0
-31 59 l 0
-1 60 l 0
-1 360 l 0
Z
30 475 m 0
39 474 48 478 54 485 c 0
61 491 65 500 65 510 c 0
64 519 61 528 54 534 c 0
48 541 39 544 30 545 c 0
20 545 11 541 5 534 c 0
-1 528 -4 519 -5 510 c 0
-5 500 -1 491 5 485 c 0
11 478 20 474 30 475 c 0
Z
Spiro
-1 360 v
-31 360 v
-31 420 v
91 420 v
91 360 v
61 360 v
61 60 v
91 60 v
91 0 v
-31 0 v
-31 59 v
-1 60 v
30 475 c
65 510 c
30 545 c
-5 510 c
0 0 z
EndSpiro
EndSplineSet
        EndChar
StartChar: k
Encoding: 107 107 0
Width: 403
InSpiro: 1
        Flags: H
        LayerCount: 2
        Back
        SplineSet
30 630 m 0
0 630 l 0
0 634 l 0
64 634 l 0
64 630 l 0
34 630 l 0
34 34 l 0
64 34 l 0
64 30 l 0
0 30 l 0
0 34 l 0
30 34 l 0
30 630 l 0
Z
269 394 m 0
269 424 l 0
274 424 l 0
274 360 l 0
269 360 l 0
269 390 l 0
35 212 l 0
269 34 l 0
269 64 l 0
274 64 l 0
274 0 l 0
269 0 l 0
269 30 l 0
30 210 l 0
30 214 l 0
269 394 l 0
Z
Spiro
30 630 v
0 630 v
0 634 v
64 634 v
64 630 v
34 630 v
34 34 v
64 34 v
64 30 v
0 30 v
0 34 v
30 34 v
269 394 v
269 424 v
274 424 v
274 360 v
269 360 v
269 390 v
35 212 v
269 34 v
269 64 v
274 64 v
274 0 v
269 0 v
269 30 v
30 210 v
30 214 v
0 0 z
EndSpiro
EndSplineSet
        Fore
        SplineSet
-1 600 m 0
-31 600 l 0
-31 660 l 0
91 660 l 0
91 600 l 0
61 600 l 0
61 60 l 0
91 60 l 0
91 0 l 0
-31 0 l 0
-31 59 l 0
-1 60 l 0
-1 600 l 0
Z
238 420 m 0
239 450 l 0
300 450 l 0
300 330 l 0
239 330 l 0
238 360 l 0
81 210 l 0
238 60 l 0
239 90 l 0
300 90 l 0
300 -29 l 0
239 -29 l 0
238 0 l 0
-1 180 l 0
-1 240 l 0
238 420 l 0
Z
Spiro
-1 600 v
-31 600 v
-31 660 v
91 660 v
91 600 v
61 600 v
61 60 v
91 60 v
91 0 v
-31 0 v
-31 59 v
-1 60 v
238 420 v
239 450 v
300 450 v
300 330 v
239 330 v
238 360 v
81 210 v
238 60 v
239 90 v
300 90 v
300 -29 v
239 -29 v
238 0 v
-1 180 v
-1 240 v
0 0 z
EndSpiro
EndSplineSet
        EndChar
StartChar: l
Encoding: 108 108 0
Width: 313
InSpiro: 1
        Flags: H
        LayerCount: 2
        Back
        SplineSet
30 630 m 0
0 630 l 0
0 634 l 0
64 634 l 0
64 630 l 0
34 630 l 0
34 212 l 0
34 189 34 167 38 145 c 0
42 123 50 102 63 84 c 0
75 66 93 51 113 42 c 0
134 33 157 30 179 34 c 0
179 64 l 0
184 64 l 0
184 0 l 0
179 0 l 0
179 30 l 0
156 26 132 29 112 38 c 0
91 47 73 62 59 80 c 0
46 99 38 121 34 143 c 0
30 166 29 189 30 212 c 0
30 630 l 0
Z
Spiro
30 630 v
0 630 v
0 634 v
64 634 v
64 630 v
34 630 v
34 212 ]
179 34 v
179 64 v
184 64 v
184 0 v
179 0 v
179 30 v
30 212 [
0 0 z
EndSpiro
EndSplineSet
        Fore
        SplineSet
-1 600 m 0
-31 600 l 0
-31 660 l 0
91 660 l 0
91 600 l 0
61 600 l 0
61 210 l 0
61 194 61 178 63 162 c 0
65 147 69 131 76 117 c 0
91 89 117 67 148 60 c 0
149 90 l 0
210 90 l 0
210 -29 l 0
149 -29 l 0
148 0 l 0
123 0 99 6 78 19 c 0
57 31 40 49 27 69 c 0
14 90 7 113 3 137 c 0
0 161 -1 185 -1 210 c 0
-1 600 l 0
Z
Spiro
-1 600 v
-31 600 v
-31 660 v
91 660 v
91 600 v
61 600 v
61 210 ]
148 60 v
149 90 v
210 90 v
210 -29 v
149 -29 v
148 0 v
-1 210 [
0 0 z
EndSpiro
EndSplineSet
        EndChar
StartChar: p
Encoding: 112 112 0
Width: 463
InSpiro: 1
        Flags: H
        LayerCount: 2
        Back
        SplineSet
30 390 m 0
0 390 l 0
0 394 l 0
64 394 l 0
64 390 l 0
34 390 l 0
34 -266 l 0
64 -266 l 0
64 -270 l 0
0 -270 l 0
0 -266 l 0
30 -266 l 0
30 390 l 0
Z
34 294 m 0
64 294 l 0
64 290 l 0
0 290 l 0
0 294 l 0
30 294 l 0
40 324 61 351 89 369 c 0
116 387 149 395 182 393 c 0
225 389 266 366 293 332 c 0
320 298 334 254 334 211 c 0
333 167 320 124 292 90 c 0
265 56 225 33 182 30 c 0
149 27 116 35 88 53 c 0
61 71 40 99 30 130 c 0
0 130 l 0
0 134 l 0
64 134 l 0
64 130 l 0
34 130 l 0
44 99 64 73 90 56 c 0
117 38 149 30 181 33 c 0
223 36 263 59 289 93 c 0
315 126 329 169 329 212 c 0
328 254 315 297 289 330 c 0
262 363 223 386 181 390 c 0
149 392 117 384 90 367 c 0
64 350 44 323 34 294 c 0
Z
Spiro
30 390 v
0 390 v
0 394 v
64 394 v
64 390 v
34 390 v
34 -266 v
64 -266 v
64 -270 v
0 -270 v
0 -266 v
30 -266 v
34 294 v
64 294 v
64 290 v
0 290 v
0 294 v
30 294 v
182 393 c
334 211 c
182 30 c
30 130 v
0 130 v
0 134 v
64 134 v
64 130 v
34 130 v
181 33 c
329 212 c
181 390 c
0 0 z
EndSpiro
EndSplineSet
        Fore
        SplineSet
-1 360 m 0
-31 360 l 0
-31 420 l 0
91 420 l 0
91 360 l 0
61 360 l 0
61 -240 l 0
91 -240 l 0
91 -300 l 0
-31 -300 l 0
-31 -240 l 0
-1 -240 l 0
-1 360 l 0
Z
61 320 m 0
91 320 l 0
91 260 l 0
-31 260 l 0
-31 320 l 0
-1 320 l 0
15 352 42 380 75 397 c 0
107 415 145 422 182 419 c 0
232 413 279 387 311 348 c 0
343 310 361 259 361 209 c 0
360 158 343 108 311 69 c 0
279 31 232 5 182 0 c 0
145 -3 107 3 75 21 c 0
42 39 15 67 -1 100 c 0
-31 100 l 0
-31 160 l 0
91 160 l 0
91 100 l 0
61 100 l 0
89 68 134 52 177 59 c 0
211 64 243 84 265 111 c 0
286 139 298 174 298 210 c 0
297 244 286 280 264 307 c 0
243 335 211 354 177 360 c 0
134 366 90 351 61 320 c 0
Z
Spiro
-1 360 v
-31 360 v
-31 420 v
91 420 v
91 360 v
61 360 v
61 -240 v
91 -240 v
91 -300 v
-31 -300 v
-31 -240 v
-1 -240 v
61 320 v
91 320 v
91 260 v
-31 260 v
-31 320 v
-1 320 v
182 419 c
361 209 c
182 0 c
-1 100 v
-31 100 v
-31 160 v
91 160 v
91 100 v
61 100 v
177 59 c
298 210 c
177 360 c
0 0 z
EndSpiro
EndSplineSet
        EndChar
StartChar: r
Encoding: 114 114 0
Width: 403
InSpiro: 1
        Flags: H
        LayerCount: 2
        Back
        SplineSet
34 34 m 0
64 34 l 0
64 30 l 0
0 30 l 0
0 34 l 0
30 34 l 0
30 390 l 0
0 390 l 0
0 394 l 0
64 394 l 0
64 390 l 0
34 390 l 0
34 34 l 0
Z
34 344 m 0
64 344 l 0
64 340 l 0
0 340 l 0
0 344 l 0
30 344 l 0
46 366 71 384 98 392 c 0
125 401 154 401 182 393 c 0
204 385 224 372 241 355 c 0
257 338 268 316 274 294 c 0
304 294 l 0
304 290 l 0
239 290 l 0
239 294 l 0
269 294 l 0
263 316 252 336 237 353 c 0
222 370 202 382 181 390 c 0
154 398 126 398 100 390 c 0
74 382 50 365 34 344 c 0
Z
Spiro
34 34 v
64 34 v
64 30 v
0 30 v
0 34 v
30 34 v
30 390 v
0 390 v
0 394 v
64 394 v
64 390 v
34 390 v
34 344 v
64 344 v
64 340 v
0 340 v
0 344 v
30 344 v
182 393 c
274 294 v
304 294 v
304 290 v
239 290 v
239 294 v
269 294 v
181 390 c
0 0 z
EndSpiro
EndSplineSet
        Fore
        SplineSet
61 60 m 0
91 60 l 0
91 0 l 0
-31 0 l 0
-31 59 l 0
-1 60 l 0
-1 360 l 0
-31 360 l 0
-31 420 l 0
91 420 l 0
91 360 l 0
61 360 l 0
61 60 l 0
Z
61 370 m 0
91 370 l 0
91 310 l 0
-31 310 l 0
-31 370 l 0
-1 370 l 0
22 394 53 412 87 421 c 0
120 429 156 428 189 418 c 0
237 402 279 366 301 320 c 0
331 320 l 0
331 260 l 0
208 260 l 0
208 320 l 0
238 320 l 0
218 337 195 351 170 361 c 0
135 373 97 376 61 370 c 0
Z
Spiro
61 60 v
91 60 v
91 0 v
-31 0 v
-31 59 v
-1 60 v
-1 360 v
-31 360 v
-31 420 v
91 420 v
91 360 v
61 360 v
61 370 v
91 370 v
91 310 v
-31 310 v
-31 370 v
-1 370 v
189 418 c
301 320 v
331 320 v
331 260 v
208 260 v
208 320 v
238 320 v
170 361 c
0 0 z
EndSpiro
EndSplineSet
        EndChar
StartChar: u
Encoding: 117 117 0
Width: 403
InSpiro: 1
        Flags: H
        LayerCount: 2
        Back
        SplineSet
274 34 m 0
304 34 l 0
304 30 l 0
239 30 l 0
239 34 l 0
269 34 l 0
269 390 l 0
239 390 l 0
239 394 l 0
304 394 l 0
304 390 l 0
274 390 l 0
274 34 l 0
Z
269 130 m 0
239 130 l 0
239 134 l 0
304 134 l 0
304 130 l 0
274 130 l 0
271 105 260 82 244 65 c 0
227 47 205 34 182 30 c 0
159 25 135 27 113 36 c 0
92 45 74 60 60 79 c 0
47 98 38 120 34 142 c 0
30 165 29 188 30 212 c 0
30 390 l 0
0 390 l 0
0 394 l 0
64 394 l 0
64 390 l 0
34 390 l 0
34 212 l 0
34 189 34 166 38 144 c 0
42 122 50 100 63 82 c 0
76 63 94 48 114 39 c 0
135 31 158 28 181 33 c 0
203 37 225 49 240 67 c 0
256 84 266 106 269 130 c 0
Z
Spiro
274 34 v
304 34 v
304 30 v
239 30 v
239 34 v
269 34 v
269 390 v
239 390 v
239 394 v
304 394 v
304 390 v
274 390 v
269 130 v
239 130 v
239 134 v
304 134 v
304 130 v
274 130 v
182 30 c
30 212 [
30 390 v
0 390 v
0 394 v
64 394 v
64 390 v
34 390 v
34 212 ]
181 33 c
0 0 z
EndSpiro
EndSplineSet
        Fore
        SplineSet
301 60 m 0
331 60 l 0
331 0 l 0
208 0 l 0
208 59 l 0
238 60 l 0
238 360 l 0
208 360 l 0
208 420 l 0
331 420 l 0
331 360 l 0
301 360 l 0
301 60 l 0
Z
238 100 m 0
208 100 l 0
208 160 l 0
331 160 l 0
331 100 l 0
301 100 l 0
292 75 276 52 256 35 c 0
236 17 211 5 186 0 c 0
159 -5 130 -3 104 5 c 0
78 14 55 31 38 53 c 0
21 74 10 100 4 127 c 0
0 154 -1 182 -1 210 c 0
-1 360 l 0
-31 360 l 0
-31 420 l 0
91 420 l 0
91 360 l 0
61 360 l 0
61 210 l 0
61 192 61 173 64 156 c 0
66 138 72 121 82 105 c 0
91 90 104 77 120 69 c 0
136 60 155 57 173 59 c 0
199 61 224 77 238 100 c 0
Z
Spiro
301 60 v
331 60 v
331 0 v
208 0 v
208 59 v
238 60 v
238 360 v
208 360 v
208 420 v
331 420 v
331 360 v
301 360 v
238 100 v
208 100 v
208 160 v
331 160 v
331 100 v
301 100 v
186 0 c
-1 210 [
-1 360 v
-31 360 v
-31 420 v
91 420 v
91 360 v
61 360 v
61 210 ]
173 59 c
0 0 z
EndSpiro
EndSplineSet
        EndChar
StartChar: w
Encoding: 119 119 0
Width: 643
InSpiro: 1
        Flags: H
        LayerCount: 2
        Back
        SplineSet
30 390 m 0
0 390 l 0
0 394 l 0
64 394 l 0
64 390 l 0
34 390 l 0
152 38 l 0
269 394 l 0
274 394 l 0
392 38 l 0
509 390 l 0
479 390 l 0
479 394 l 0
544 394 l 0
544 390 l 0
514 390 l 0
394 30 l 0
389 30 l 0
272 385 l 0
154 30 l 0
149 30 l 0
30 390 l 0
Z
Spiro
30 390 v
0 390 v
0 394 v
64 394 v
64 390 v
34 390 v
152 38 v
269 394 v
274 394 v
392 38 v
509 390 v
479 390 v
479 394 v
544 394 v
544 390 v
514 390 v
394 30 v
389 30 v
272 385 v
154 30 v
149 30 v
0 0 z
EndSpiro
EndSplineSet
        Fore
        SplineSet
-1 360 m 0
-31 360 l 0
-31 420 l 0
91 420 l 0
91 360 l 0
61 360 l 0
150 124 l 0
238 420 l 0
301 420 l 0
390 124 l 0
478 360 l 0
448 360 l 0
448 420 l 0
571 420 l 0
571 360 l 0
541 360 l 0
421 0 l 0
358 0 l 0
270 295 l 0
181 0 l 0
118 0 l 0
-1 360 l 0
Z
Spiro
-1 360 v
-31 360 v
-31 420 v
91 420 v
91 360 v
61 360 v
150 124 v
238 420 v
301 420 v
390 124 v
478 360 v
448 360 v
448 420 v
571 420 v
571 360 v
541 360 v
421 0 v
358 0 v
270 295 v
181 0 v
118 0 v
0 0 z
EndSpiro
EndSplineSet
        EndChar
StartChar: x
Encoding: 120 120 0
Width: 463
InSpiro: 1
        Flags: H
        LayerCount: 2
        Back
        SplineSet
30 390 m 0
0 390 l 0
0 394 l 0
64 394 l 0
64 390 l 0
34 390 l 0
334 34 l 0
364 34 l 0
364 30 l 0
299 30 l 0
299 34 l 0
329 34 l 0
30 390 l 0
Z
329 390 m 0
299 390 l 0
299 394 l 0
364 394 l 0
364 390 l 0
334 390 l 0
34 34 l 0
64 34 l 0
64 30 l 0
0 30 l 0
0 34 l 0
30 34 l 0
329 390 l 0
Z
Spiro
30 390 v
0 390 v
0 394 v
64 394 v
64 390 v
34 390 v
334 34 v
364 34 v
364 30 v
299 30 v
299 34 v
329 34 v
329 390 v
299 390 v
299 394 v
364 394 v
364 390 v
334 390 v
34 34 v
64 34 v
64 30 v
0 30 v
0 34 v
30 34 v
0 0 z
EndSpiro
EndSplineSet
        Fore
        SplineSet
-1 360 m 0
-31 360 l 0
-31 420 l 0
91 420 l 0
91 360 l 0
61 360 l 0
361 60 l 0
391 60 l 0
391 0 l 0
268 0 l 0
268 59 l 0
298 60 l 0
-1 360 l 0
Z
298 360 m 0
268 360 l 0
268 420 l 0
391 420 l 0
391 360 l 0
361 360 l 0
61 60 l 0
91 60 l 0
91 0 l 0
-31 0 l 0
-31 59 l 0
-1 60 l 0
298 360 l 0
Z
Spiro
-1 360 v
-31 360 v
-31 420 v
91 420 v
91 360 v
61 360 v
361 60 v
391 60 v
391 0 v
268 0 v
268 59 v
298 60 v
298 360 v
268 360 v
268 420 v
391 420 v
391 360 v
361 360 v
61 60 v
91 60 v
91 0 v
-31 0 v
-31 59 v
-1 60 v
0 0 z
EndSpiro
EndSplineSet
        EndChar
